<?xml version="1.0" ?><svg viewBox="0 0 64 64" xmlns="http://www.w3.org/2000/svg"><defs><style>.cls-1{fill:#0072ff;}</style></defs><title/><g data-name="Layer 2" id="Layer_2"><path class="cls-1" d="M55.73,7a45.69,45.69,0,0,1-6,.39,40.75,40.75,0,0,1-15.7-3,5.39,5.39,0,0,0-4.19,0,40.75,40.75,0,0,1-15.7,3A45.85,45.85,0,0,1,8.26,7a3.88,3.88,0,0,0-4.34,3.87V33a26.57,26.57,0,0,0,13.28,23,29.6,29.6,0,0,0,29.6,0A26.57,26.57,0,0,0,60.08,33V10.85A3.88,3.88,0,0,0,55.73,7Zm-32.1,3.07,1-.31a1,1,0,0,1,.65,1.89l-1,.33a1,1,0,1,1-.57-1.92ZM11.85,13.18a1,1,0,0,1-.93-1.07A1,1,0,0,1,12,11.18,35.48,35.48,0,0,0,19,11a1,1,0,1,1,.25,2,36.55,36.55,0,0,1-4.61.29C13.73,13.28,12.79,13.24,11.85,13.18ZM45.47,35,33.53,46.9a2.24,2.24,0,0,1-3.17,0L18.6,35.15a9.06,9.06,0,0,1-.33-12.43,8.76,8.76,0,0,1,11.11-1.3.67.67,0,0,1,.11,1l-1.61,1.61a1.31,1.31,0,0,0,1.86,1.86l2.21-2.21.94-.94a9,9,0,0,1,12.3-.47A8.77,8.77,0,0,1,45.47,35Z"/></g></svg>